<svg xmlns="http://www.w3.org/2000/svg" viewBox="0 0 866.62 194.58"><defs><style>.a{fill:#324d5c;}.b{fill:#46b29d;}.c{fill:#e37b40;}</style></defs><title>logo_colour</title><path class="a" d="M271.71,98.94c0,10.84-6.78,18.69-15.91,18.69-5.35,0-9.14-3-11.49-7.49h-.21v6.78h-6.28V67h6.28V87.66h.28A13.51,13.51,0,0,1,256,80.53C265.14,80.53,271.71,88.3,271.71,98.94Zm-6.71,0c0-7.78-4.21-13.28-10.34-13.28-6.35,0-10.71,6.14-10.71,13.28,0,7.34,4.21,13.48,10.71,13.48C260.93,112.42,265,106.93,265,98.94Z" transform="translate(-3.4 -0.97)"/><path class="a" d="M295.11,102.79V112h13.56v4.93H281.48V112h7.64V86.16h-7.64V81.24h13.2l.07,10.2H295c2.21-7.35,6.7-10.91,12.48-10.91a19.6,19.6,0,0,1,5.35.78l-.14,6.21a18.12,18.12,0,0,0-5.28-.79C300,86.73,295.11,92.73,295.11,102.79Z" transform="translate(-3.4 -0.97)"/><path class="a" d="M357.47,81.24l-14.34,36.18c-3.29,8.49-7.64,13-15.06,13a17.13,17.13,0,0,1-6.42-1l.07-5.42a12.31,12.31,0,0,0,5.64,1.29c4.56,0,7.7-2.36,9.92-8.35l1-2.64h-3.42L322.51,81.24h6.85l10.27,29.68L351,81.24Z" transform="translate(-3.4 -0.97)"/><path class="a" d="M397.78,94.37v22.55H391.5V95c0-6.06-2.93-9.2-8-9.2-6.78,0-10,5.35-10,13.41v17.7h-6.28V81.24h6V89.3h.15c2-5.85,6.06-8.77,12.06-8.77C393.21,80.53,397.78,85.74,397.78,94.37Z" transform="translate(-3.4 -0.97)"/><path class="a" d="M423.53,102.79V112h13.56v4.93H409.91V112h7.63V86.16h-7.63V81.24h13.2l.07,10.2h.21c2.21-7.35,6.71-10.91,12.49-10.91a19.6,19.6,0,0,1,5.35.78l-.14,6.21a18.17,18.17,0,0,0-5.28-.79C428.46,86.73,423.53,92.73,423.53,102.79Z" transform="translate(-3.4 -0.97)"/><path class="a" d="M450.43,98.94c0-10.85,7.56-18.41,17.55-18.41s17.55,7.56,17.55,18.41S478,117.63,468,117.63,450.43,109.92,450.43,98.94Zm28.68,0c0-7.92-4.56-13.28-11.13-13.28S456.85,91,456.85,98.94s4.57,13.48,11.13,13.48S479.11,106.93,479.11,98.94Z" transform="translate(-3.4 -0.97)"/><path class="a" d="M528.56,98.94c0,10.84-6.78,18.69-15.91,18.69-5.36,0-9.14-3-11.49-7.49h-.22v6.78h-6.27V67h6.27V87.66h.29a13.51,13.51,0,0,1,11.63-7.13C522,80.53,528.56,88.3,528.56,98.94Zm-6.71,0c0-7.78-4.21-13.28-10.34-13.28-6.36,0-10.71,6.14-10.71,13.28,0,7.34,4.21,13.48,10.71,13.48C517.78,112.42,521.85,106.93,521.85,98.94Z" transform="translate(-3.4 -0.97)"/><path class="a" d="M569.44,100.15h-25.9c.5,8,5.14,12.2,12.41,12.2A24.78,24.78,0,0,0,568.58,109v5.49a27.68,27.68,0,0,1-13.34,3.14c-10.7,0-17.91-7.06-17.91-18.34,0-10.77,6.85-18.76,16.77-18.76,9.7,0,15.7,6.78,15.7,15.91A19,19,0,0,1,569.44,100.15Zm-25.62-4.57h20.27c-.57-6.56-3.86-10-9.92-10C548.82,85.59,544.82,89.23,543.82,95.58Z" transform="translate(-3.4 -0.97)"/><path class="a" d="M594.77,102.79V112h13.55v4.93H581.14V112h7.63V86.16h-7.63V81.24h13.2l.07,10.2h.21c2.22-7.35,6.71-10.91,12.49-10.91a19.6,19.6,0,0,1,5.35.78l-.14,6.21a18.17,18.17,0,0,0-5.28-.79C599.69,86.73,594.77,92.73,594.77,102.79Z" transform="translate(-3.4 -0.97)"/><path class="a" d="M656,115.92a29.69,29.69,0,0,1-10.13,1.71c-9.7,0-15.05-5.14-15.05-15.48V86.38h-9.49V81.24h9.49V69.75h6.35V81.24h17.48v5.14H637.15v15.48c0,7,3.21,10.2,9.56,10.2a22.45,22.45,0,0,0,9.13-1.78Z" transform="translate(-3.4 -0.97)"/><path class="a" d="M667.47,114.35v-6.07a27.76,27.76,0,0,0,14.77,4.14c5.21,0,8.63-2.14,8.63-5.71,0-2.78-1.35-4.42-6.35-5.06l-7.78-1.07c-6.06-.93-9.56-3.86-9.56-9.42,0-7,6.35-10.63,15-10.63a32.81,32.81,0,0,1,13.41,2.57v5.49a31.92,31.92,0,0,0-13.34-2.93c-5.35,0-8.64,1.79-8.64,5.14,0,2.64,1.5,4.07,5.21,4.57l8.49,1.21c6.5,1,10,3.71,10,9.42,0,7.85-6.77,11.63-15,11.63A32.62,32.62,0,0,1,667.47,114.35Z" transform="translate(-3.4 -0.97)"/><path class="a" d="M720.34,105.43h9v11.49h-9Z" transform="translate(-3.4 -0.97)"/><path class="a" d="M783.05,94.37v22.55h-6.28V95c0-6.06-2.92-9.2-8-9.2-6.78,0-10,5.35-10,13.41v17.7h-6.28V81.24h6V89.3h.14c2-5.85,6.06-8.77,12.06-8.77C778.49,80.53,783.05,85.74,783.05,94.37Z" transform="translate(-3.4 -0.97)"/><path class="a" d="M826.29,100.15h-25.9c.5,8,5.13,12.2,12.41,12.2A24.81,24.81,0,0,0,825.43,109v5.49a27.68,27.68,0,0,1-13.34,3.14c-10.7,0-17.91-7.06-17.91-18.34,0-10.77,6.85-18.76,16.77-18.76,9.7,0,15.7,6.78,15.7,15.91A19,19,0,0,1,826.29,100.15Zm-25.62-4.57h20.27c-.57-6.56-3.85-10-9.92-10C805.67,85.59,801.67,89.23,800.67,95.58Z" transform="translate(-3.4 -0.97)"/><path class="a" d="M870,115.92a29.64,29.64,0,0,1-10.13,1.71c-9.7,0-15-5.14-15-15.48V86.38h-9.49V81.24h9.49V69.75h6.35V81.24h17.48v5.14H851.19v15.48c0,7,3.21,10.2,9.56,10.2a22.41,22.41,0,0,0,9.13-1.78Z" transform="translate(-3.4 -0.97)"/><path class="a" d="M32,168.1A98,98,0,0,1,3.4,106.94H31.71C33.11,138.2,42,166,55.41,185.51A98.86,98.86,0,0,1,32,168.1Z" transform="translate(-3.4 -0.97)"/><path class="b" d="M171.63,168.1a98,98,0,0,0,28.55-61.16h-28.3c-1.4,31.26-10.29,59.08-23.71,78.57A98.86,98.86,0,0,0,171.63,168.1Z" transform="translate(-3.4 -0.97)"/><path class="a" d="M32,28.42A98,98,0,0,0,3.4,89.57H31.71C33.11,58.31,42,30.5,55.41,11A99.18,99.18,0,0,0,32,28.42Z" transform="translate(-3.4 -0.97)"/><path class="b" d="M148.17,11c13.42,19.5,22.31,47.31,23.71,78.57h28.3a98,98,0,0,0-28.55-61.15A99.18,99.18,0,0,0,148.17,11Z" transform="translate(-3.4 -0.97)"/><path class="a" d="M84.39,191a34.76,34.76,0,0,0,8.72,4.52V106.94h-44c1.23,24.36,7.58,47.47,17.85,64.45C72.08,179.85,78.11,186.64,84.39,191Z" transform="translate(-3.4 -0.97)"/><path class="a" d="M67,25.13c-10.27,17-16.62,40.08-17.85,64.44h44V1a35,35,0,0,0-8.72,4.51C78.11,9.87,72.08,16.67,67,25.13Z" transform="translate(-3.4 -0.97)"/><path class="c" d="M136.62,171.39c10.28-17,16.63-40.09,17.86-64.45h-44v88.61A35.1,35.1,0,0,0,119.2,191C125.48,186.64,131.5,179.85,136.62,171.39Z" transform="translate(-3.4 -0.97)"/><path class="c" d="M119.2,5.48A35.39,35.39,0,0,0,110.48,1v88.6h44c-1.23-24.36-7.58-47.47-17.86-64.44C131.5,16.67,125.48,9.87,119.2,5.48Z" transform="translate(-3.4 -0.97)"/></svg>